<?xml version="1.0" encoding="UTF-8" standalone="no"?>
<svg width="200" height="80" viewBox="0 0 200 80" fill="none" xmlns="http://www.w3.org/2000/svg">
  <!-- Logo Background -->
  <rect width="200" height="80" fill="white"/>
  
  <!-- Elegant B Symbol -->
  <path d="M40 20C40 20 35 20 35 25V55C35 55 35 60 40 60H55C55 60 60 60 60 55V45C60 45 60 42 57 40C60 38 60 35 60 35V25C60 25 60 20 55 20H40ZM50 35C50 35 50 30 45 30H45C45 30 40 30 40 35V35C40 35 40 40 45 40H45C45 40 50 40 50 35V35ZM50 50C50 50 50 45 45 45H45C45 45 40 45 40 50V50C40 50 40 55 45 55H45C45 55 50 55 50 50V50Z" fill="#0aad0a"/>
  
  <!-- Brand Name in Elegant Typography -->
  <path d="M70 50V30H75L80 42V30H85V50H80L75 38V50H70Z" fill="#333333"/>
  <path d="M90 50L88 42H85L83 50H78L83 30H90L95 50H90ZM86 38H87L86.5 35L86 38Z" fill="#333333"/>
  <path d="M100 50V30H105V45H110V50H100Z" fill="#333333"/>
  <path d="M115 50V30H125V35H120V38H124V43H120V45H125V50H115Z" fill="#333333"/>
  
  <!-- Decorative Elements -->
  <line x1="40" y1="65" x2="160" y2="65" stroke="#0aad0a" stroke-width="1"/>
  
  <!-- Luxury Fashion Tagline -->
  <text x="100" y="75" font-family="'Encode Sans Expanded', sans-serif" font-size="8" text-anchor="middle" fill="#333333">LUXURY FASHION</text>
</svg>
