<?xml version="1.0" encoding="UTF-8" standalone="no"?>
<svg width="60" height="60" viewBox="0 0 60 60" fill="none" xmlns="http://www.w3.org/2000/svg">
  <!-- Logo Background -->
  <rect width="60" height="60" fill="white"/>
  
  <!-- Elegant B Symbol -->
  <path d="M15 10C15 10 12.5 10 12.5 12.5V47.5C12.5 47.5 12.5 50 15 50H27.5C27.5 50 30 50 30 47.5V35C30 35 30 32.5 27.5 30C30 27.5 30 25 30 25V12.5C30 12.5 30 10 27.5 10H15ZM25 25C25 25 25 20 20 20H20C20 20 15 20 15 25V25C15 25 15 30 20 30H20C20 30 25 30 25 25V25ZM25 40C25 40 25 35 20 35H20C20 35 15 35 15 40V40C15 40 15 45 20 45H20C20 45 25 45 25 40V40Z" fill="#0aad0a"/>
  
  <!-- Decorative Circle -->
  <circle cx="30" cy="30" r="28" stroke="#0aad0a" stroke-width="1" fill="none"/>
</svg>
